<svg width="179" height="217" viewBox="0 0 179 217" fill="none" xmlns="http://www.w3.org/2000/svg">
<path d="M80.4353 106.141L67 56H58L44.5647 106.141M80.4353 106.141L87 130.641M80.4353 106.141H44.5647M38 130.641L44.5647 106.141M105.5 130.641H122M122 130.641H139.5M122 130.641V56M122 56H139.5M122 56H105.5M87.6152 5C87.6152 5 141.115 32.5 171.115 38.5C187.109 164.5 102.608 212 89.1113 212C75.6143 212 -5.39034 165.5 6.11517 38.5C44.1102 30 87.6152 5 87.6152 5Z" stroke="#6C00BE" stroke-width="10" stroke-linecap="round" stroke-linejoin="round"/>
</svg>
