<svg width="53" height="60" viewBox="0 0 53 60" fill="none" xmlns="http://www.w3.org/2000/svg">
<path d="M36.3326 22.2059C36.5388 22.0222 36.557 21.7062 36.3733 21.5C36.1896 21.2938 35.8735 21.2756 35.6674 21.4593L36 21.8326L36.3326 22.2059ZM33.75 23.8376L33.4174 23.4643L33.2958 23.5726L33.2613 23.7318L33.75 23.8376ZM30.375 29.3057L30.039 29.676L30.0498 29.6858L30.0611 29.6949L30.375 29.3057ZM30.75 30.9461L31.1459 31.2516L31.1459 31.2516L30.75 30.9461ZM23.5864 25.8372C23.3821 25.6514 23.0659 25.6664 22.8801 25.8707C22.6943 26.075 22.7093 26.3912 22.9136 26.577L23.25 26.2071L23.5864 25.8372ZM29.0625 33.3157L29.3694 33.7103L29.0625 33.3157ZM21.8975 27.8409C21.6925 27.6559 21.3764 27.6721 21.1913 27.8771C21.0063 28.082 21.0225 28.3982 21.2275 28.5832L21.5625 28.2121L21.8975 27.8409ZM25.875 34.227L26.0936 34.6767L26.0936 34.6767L25.875 34.227ZM19.653 29.1218C19.4507 28.9338 19.1344 28.9453 18.9463 29.1475C18.7583 29.3497 18.7698 29.6661 18.972 29.8541L19.3125 29.488L19.653 29.1218ZM22.875 34.7738L22.6202 34.3436L22.6202 34.3436L22.875 34.7738ZM21.1875 34.5915L21.5659 34.2647L21.5476 34.2435L21.527 34.2244L21.1875 34.5915ZM13.5 27.483L13.0775 27.7505L13.1125 27.8057L13.1605 27.8501L13.5 27.483ZM12 23.8376L12.5 23.8376C12.5 23.697 12.4408 23.5628 12.3368 23.4681L12 23.8376ZM9.33679 20.734C9.13269 20.548 8.81645 20.5627 8.63045 20.7668C8.44444 20.9709 8.45911 21.2871 8.66321 21.4731L9 21.1036L9.33679 20.734ZM22.2735 21.2801C22.069 21.0945 21.7528 21.1099 21.5672 21.3144C21.3816 21.5189 21.397 21.8351 21.6015 22.0207L21.9375 21.6504L22.2735 21.2801ZM22.6875 21.1036L22.2429 21.3323L22.6875 21.1036ZM24.375 17.6404L24.5361 17.1671L24.4577 17.1404H24.375V17.6404ZM28.125 18.9163L27.9639 19.3897L28.2295 19.48L28.4451 19.3004L28.125 18.9163ZM31.0701 17.1132C31.2822 16.9364 31.3109 16.6212 31.1341 16.409C30.9574 16.1969 30.6421 16.1682 30.4299 16.345L30.75 16.7291L31.0701 17.1132ZM16.661 15.6415C16.463 15.449 16.1465 15.4535 15.954 15.6515C15.7615 15.8495 15.766 16.166 15.964 16.3585L16.3125 16L16.661 15.6415ZM24 23.5217L23.664 23.892L23.664 23.892L24 23.5217ZM26.625 24.749L26.7431 24.2631L26.625 24.749ZM28.2094 24.9863C28.4412 24.8361 28.5073 24.5265 28.3571 24.2948C28.2069 24.063 27.8973 23.9969 27.6656 24.1471L27.9375 24.5667L28.2094 24.9863ZM15.305 29.1521L15.6444 28.7849L15.6444 28.7849L15.305 29.1521ZM15.305 31.0555L15.6527 30.6962L15.6527 30.6962L15.305 31.0555ZM17.0625 32.9511L16.7033 33.2989L17.0625 32.9511ZM19.2188 32.7711L19.5582 32.404L19.5582 32.404L19.2188 32.7711ZM19.125 34.7738L18.8304 35.1778L19.125 34.7738ZM36 21.8326L35.6674 21.4593L33.4174 23.4643L33.75 23.8376L34.0826 24.2109L36.3326 22.2059L36 21.8326ZM33.75 23.8376L33.2613 23.7318C32.9075 25.3657 32.1091 26.6634 31.3914 27.5573C31.0334 28.0032 30.6983 28.345 30.4546 28.5738C30.3329 28.6881 30.2343 28.7739 30.1675 28.8301C30.1341 28.8582 30.1086 28.8789 30.0923 28.8919C30.0841 28.8985 30.0782 28.9031 30.0747 28.9059C30.0729 28.9073 30.0718 28.9082 30.0712 28.9086C30.071 28.9088 30.0709 28.9089 30.0709 28.9088C30.0709 28.9088 30.071 28.9088 30.0711 28.9087C30.0711 28.9086 30.0712 28.9086 30.0713 28.9085C30.0714 28.9085 30.0715 28.9084 30.375 29.3057C30.6785 29.7031 30.6786 29.703 30.6788 29.7028C30.6789 29.7028 30.679 29.7027 30.6792 29.7026C30.6794 29.7024 30.6797 29.7021 30.6801 29.7019C30.6807 29.7013 30.6816 29.7007 30.6826 29.6999C30.6846 29.6984 30.6872 29.6964 30.6904 29.6938C30.6969 29.6888 30.7058 29.6817 30.717 29.6728C30.7395 29.6548 30.7712 29.629 30.811 29.5955C30.8907 29.5285 31.0031 29.4306 31.1391 29.3028C31.411 29.0475 31.7791 28.6716 32.1711 28.1834C32.9534 27.209 33.8425 25.7727 34.2387 23.9434L33.75 23.8376ZM30.375 29.3057C30.0611 29.6949 30.061 29.6948 30.0608 29.6947C30.0608 29.6947 30.0607 29.6945 30.0606 29.6945C30.0604 29.6943 30.0602 29.6942 30.0601 29.6941C30.0598 29.6939 30.0596 29.6937 30.0594 29.6935C30.0591 29.6932 30.0589 29.6931 30.059 29.6932C30.0592 29.6934 30.0602 29.6942 30.0621 29.6958C30.0657 29.6989 30.0724 29.7047 30.0816 29.713C30.1001 29.7298 30.128 29.7561 30.1606 29.7904C30.2275 29.8608 30.3055 29.9556 30.3657 30.0624C30.4265 30.1701 30.4577 30.2693 30.4601 30.3557C30.4622 30.4311 30.4439 30.5243 30.3541 30.6407L30.75 30.9461L31.1459 31.2516C31.3743 30.9555 31.4683 30.6375 31.4597 30.328C31.4514 30.0295 31.3491 29.7701 31.2366 29.5708C31.1235 29.3706 30.9884 29.2099 30.8856 29.1017C30.8333 29.0466 30.7871 29.0028 30.7528 28.9717C30.7356 28.9561 30.7212 28.9436 30.7103 28.9344C30.7049 28.9297 30.7004 28.9259 30.6967 28.9229C30.6949 28.9215 30.6934 28.9202 30.6921 28.9191C30.6914 28.9186 30.6908 28.9181 30.6903 28.9176C30.69 28.9174 30.6898 28.9172 30.6895 28.917C30.6894 28.9169 30.6892 28.9168 30.6892 28.9167C30.689 28.9166 30.6889 28.9165 30.375 29.3057ZM30.75 30.9461L30.3541 30.6407C30.1883 30.8556 29.9206 30.9596 29.631 30.9971C29.4919 31.0151 29.3645 31.0153 29.272 31.0107C29.2262 31.0084 29.1903 31.005 29.1675 31.0025C29.1561 31.0012 29.148 31.0001 29.1437 30.9995C29.1415 30.9992 29.1403 30.999 29.1401 30.999C29.14 30.999 29.1401 30.999 29.1405 30.9991C29.1407 30.9991 29.141 30.9991 29.1413 30.9992C29.1415 30.9992 29.1416 30.9993 29.1418 30.9993C29.1419 30.9993 29.1421 30.9993 29.1421 30.9993C29.1423 30.9994 29.1425 30.9994 29.0625 31.493C28.9825 31.9865 28.9827 31.9865 28.9829 31.9866C28.983 31.9866 28.9831 31.9866 28.9833 31.9866C28.9835 31.9867 28.9838 31.9867 28.9841 31.9868C28.9847 31.9869 28.9854 31.987 28.9861 31.9871C28.9876 31.9873 28.9894 31.9876 28.9914 31.9879C28.9955 31.9885 29.0006 31.9893 29.0069 31.9901C29.0193 31.9918 29.036 31.994 29.0564 31.9963C29.0973 32.0008 29.1537 32.006 29.2222 32.0094C29.3581 32.0162 29.5472 32.0163 29.7596 31.9888C30.1732 31.9352 30.7492 31.7658 31.1459 31.2516L30.75 30.9461ZM29.0625 31.493L29.3989 31.123L23.5864 25.8372L23.25 26.2071L22.9136 26.577L28.7261 31.8629L29.0625 31.493ZM29.0625 31.493C28.7003 31.8377 28.7002 31.8375 28.7001 31.8374C28.7 31.8374 28.6999 31.8372 28.6998 31.8371C28.6996 31.8369 28.6995 31.8368 28.6993 31.8366C28.6991 31.8364 28.6989 31.8361 28.6987 31.8359C28.6984 31.8356 28.6983 31.8355 28.6984 31.8356C28.6986 31.8358 28.6996 31.837 28.7014 31.839C28.7051 31.843 28.7116 31.8504 28.7204 31.861C28.7382 31.8822 28.7645 31.915 28.7943 31.9571C28.8555 32.0439 28.9221 32.1568 28.9641 32.2776C29.0059 32.3981 29.0157 32.5036 28.9954 32.5938C28.977 32.6749 28.9245 32.7895 28.7556 32.921L29.0625 33.3157L29.3694 33.7103C29.699 33.4541 29.8957 33.147 29.9709 32.8138C30.044 32.4895 29.9915 32.1878 29.9087 31.9495C29.826 31.7116 29.7056 31.5142 29.6111 31.3803C29.563 31.3121 29.5192 31.2571 29.4863 31.218C29.4699 31.1984 29.456 31.1825 29.4455 31.1708C29.4402 31.165 29.4358 31.1601 29.4323 31.1564C29.4305 31.1545 29.429 31.1528 29.4277 31.1515C29.4271 31.1508 29.4265 31.1502 29.426 31.1496C29.4258 31.1494 29.4255 31.1491 29.4253 31.1489C29.4252 31.1488 29.425 31.1486 29.425 31.1485C29.4248 31.1484 29.4247 31.1482 29.0625 31.493ZM29.0625 33.3157L28.7556 32.921C28.501 33.1189 28.1632 33.1028 27.7753 32.944C27.5918 32.8689 27.4279 32.7729 27.3082 32.6937C27.2491 32.6545 27.2026 32.6208 27.172 32.5976C27.1567 32.5861 27.1455 32.5773 27.1388 32.572C27.1354 32.5693 27.1332 32.5675 27.1321 32.5666C27.1316 32.5662 27.1314 32.566 27.1315 32.5661C27.1315 32.5661 27.1316 32.5662 27.1318 32.5663C27.1319 32.5664 27.132 32.5665 27.1321 32.5666C27.1322 32.5667 27.1323 32.5668 27.1323 32.5668C27.1324 32.5669 27.1326 32.567 26.8125 32.9511C26.4924 33.3352 26.4926 33.3354 26.4927 33.3355C26.4928 33.3355 26.4929 33.3356 26.493 33.3357C26.4932 33.3359 26.4934 33.3361 26.4937 33.3363C26.4942 33.3367 26.4948 33.3372 26.4955 33.3377C26.4968 33.3389 26.4985 33.3402 26.5004 33.3418C26.5044 33.3451 26.5097 33.3493 26.5161 33.3545C26.5291 33.3648 26.547 33.3788 26.5694 33.3957C26.6143 33.4296 26.6777 33.4755 26.7563 33.5275C26.9119 33.6306 27.1348 33.7624 27.3965 33.8695C27.8993 34.0753 28.6865 34.2415 29.3694 33.7103L29.0625 33.3157ZM26.8125 32.9511L27.1475 32.58L21.8975 27.8409L21.5625 28.2121L21.2275 28.5832L26.4775 33.3223L26.8125 32.9511ZM26.8125 32.9511C26.3228 32.8504 26.3228 32.8502 26.3228 32.85C26.3228 32.85 26.3229 32.8498 26.3229 32.8497C26.3229 32.8495 26.323 32.8493 26.323 32.8492C26.3231 32.8488 26.3231 32.8485 26.3232 32.8483C26.3233 32.8478 26.3234 32.8475 26.3234 32.8474C26.3234 32.8473 26.3233 32.8479 26.3229 32.8493C26.3223 32.8521 26.3209 32.858 26.3187 32.8665C26.3144 32.8835 26.3068 32.911 26.2955 32.9462C26.2726 33.0173 26.2356 33.1163 26.1804 33.2237C26.0667 33.4446 25.8977 33.66 25.6564 33.7773L25.875 34.227L26.0936 34.6767C26.6023 34.4294 26.902 34.0069 27.0696 33.6811C27.1551 33.515 27.2118 33.3634 27.2475 33.2522C27.2655 33.1963 27.2784 33.1497 27.2872 33.1155C27.2916 33.0984 27.295 33.0843 27.2975 33.0736C27.2987 33.0682 27.2997 33.0637 27.3005 33.0601C27.3009 33.0582 27.3012 33.0566 27.3015 33.0553C27.3017 33.0546 27.3018 33.054 27.3019 33.0534C27.302 33.0531 27.302 33.0528 27.3021 33.0526C27.3021 33.0525 27.3022 33.0523 27.3022 33.0522C27.3022 33.052 27.3022 33.0519 26.8125 32.9511ZM25.875 34.227L25.6564 33.7773C25.5841 33.8125 25.4626 33.8304 25.2711 33.7925C25.0828 33.7552 24.8728 33.6726 24.6654 33.5675C24.4609 33.4638 24.2764 33.3473 24.142 33.2555C24.0753 33.21 24.0221 33.1714 23.9864 33.1448C23.9686 33.1315 23.9551 33.1213 23.9466 33.1147C23.9424 33.1114 23.9394 33.1091 23.9376 33.1077C23.9368 33.107 23.9362 33.1066 23.936 33.1064C23.9359 33.1064 23.9359 33.1063 23.936 33.1064C23.936 33.1064 23.9361 33.1065 23.9361 33.1065C23.9362 33.1066 23.9362 33.1066 23.9363 33.1066C23.9363 33.1067 23.9364 33.1067 23.625 33.4979C23.3136 33.8891 23.3137 33.8892 23.3138 33.8892C23.3138 33.8893 23.3139 33.8894 23.314 33.8894C23.3142 33.8896 23.3143 33.8897 23.3145 33.8899C23.315 33.8902 23.3154 33.8906 23.316 33.891C23.3172 33.892 23.3187 33.8932 23.3206 33.8946C23.3243 33.8975 23.3293 33.9015 23.3357 33.9064C23.3484 33.9162 23.3664 33.9299 23.389 33.9467C23.4343 33.9805 23.4987 34.0272 23.5782 34.0814C23.7361 34.1893 23.9589 34.3305 24.2133 34.4595C24.4648 34.5869 24.7655 34.7118 25.0768 34.7734C25.3849 34.8345 25.7517 34.8428 26.0936 34.6767L25.875 34.227ZM23.625 33.4979L23.9655 33.1318L19.653 29.1218L19.3125 29.488L18.972 29.8541L23.2845 33.8641L23.625 33.4979ZM23.625 33.4979C23.1364 33.3919 23.1364 33.3918 23.1364 33.3917C23.1364 33.3917 23.1364 33.3916 23.1365 33.3915C23.1365 33.3914 23.1365 33.3913 23.1365 33.3912C23.1366 33.391 23.1366 33.3909 23.1366 33.3908C23.1367 33.3906 23.1366 33.3907 23.1366 33.391C23.1365 33.3915 23.1361 33.3929 23.1356 33.3951C23.1346 33.3995 23.1328 33.4072 23.1301 33.4176C23.1249 33.4385 23.1164 33.4705 23.1046 33.5105C23.0808 33.5914 23.0443 33.7013 22.9941 33.8181C22.8835 34.076 22.7484 34.2677 22.6202 34.3436L22.875 34.7738L23.1297 35.204C23.5446 34.9584 23.7845 34.5122 23.9131 34.2125C23.9826 34.0505 24.0318 33.9018 24.0637 33.7936C24.0798 33.7392 24.0918 33.6941 24.0999 33.6615C24.104 33.6452 24.1072 33.632 24.1095 33.6223C24.1106 33.6175 24.1115 33.6135 24.1122 33.6104C24.1126 33.6088 24.1128 33.6075 24.1131 33.6065C24.1132 33.6059 24.1133 33.6054 24.1134 33.605C24.1134 33.6048 24.1135 33.6046 24.1135 33.6044C24.1135 33.6043 24.1136 33.6042 24.1136 33.6042C24.1136 33.604 24.1136 33.6039 23.625 33.4979ZM22.875 34.7738L22.6202 34.3436C22.2613 34.5561 22.0051 34.5117 21.8405 34.4445C21.7484 34.407 21.6741 34.3567 21.623 34.3154C21.598 34.2952 21.5801 34.2783 21.57 34.2684C21.565 34.2635 21.5621 34.2604 21.5614 34.2596C21.561 34.2592 21.5612 34.2594 21.5619 34.2602C21.5623 34.2606 21.5628 34.2612 21.5635 34.262C21.5638 34.2623 21.5642 34.2627 21.5646 34.2632C21.5648 34.2634 21.565 34.2637 21.5652 34.2639C21.5653 34.2641 21.5655 34.2643 21.5656 34.2643C21.5657 34.2645 21.5659 34.2647 21.1875 34.5915C20.8091 34.9184 20.8093 34.9186 20.8095 34.9188C20.8095 34.9189 20.8097 34.9191 20.8098 34.9192C20.8101 34.9195 20.8104 34.9198 20.8107 34.9202C20.8112 34.9208 20.8118 34.9215 20.8125 34.9223C20.8138 34.9238 20.8153 34.9255 20.817 34.9273C20.8204 34.9311 20.8245 34.9356 20.8293 34.9408C20.8389 34.9512 20.8515 34.9643 20.867 34.9795C20.8978 35.01 20.9405 35.0495 20.9946 35.0932C21.1017 35.1798 21.2594 35.2875 21.4627 35.3704C21.8888 35.5443 22.4763 35.591 23.1297 35.204L22.875 34.7738ZM13.5 27.483L13.9225 27.2156C13.1943 26.0653 12.8391 25.1946 12.6658 24.626C12.5791 24.3415 12.5377 24.132 12.5179 24C12.5081 23.934 12.5036 23.8872 12.5016 23.8601C12.5006 23.8465 12.5002 23.8378 12.5 23.8341C12.5 23.8322 12.5 23.8316 12.5 23.8321C12.5 23.8324 12.5 23.833 12.5 23.8339C12.5 23.8344 12.5 23.8349 12.5 23.8355C12.5 23.8359 12.5 23.8362 12.5 23.8365C12.5 23.8367 12.5 23.837 12.5 23.8371C12.5 23.8373 12.5 23.8376 12 23.8376C11.5 23.8376 11.5 23.8379 11.5 23.8382C11.5 23.8383 11.5 23.8386 11.5 23.8388C11.5 23.8392 11.5 23.8397 11.5 23.8401C11.5 23.8411 11.5 23.8421 11.5 23.8431C11.5 23.8453 11.5001 23.8478 11.5001 23.8505C11.5002 23.8561 11.5004 23.8629 11.5007 23.871C11.5013 23.887 11.5024 23.9081 11.5043 23.934C11.5081 23.9859 11.5154 24.0574 11.5289 24.148C11.5561 24.3293 11.6084 24.5868 11.7092 24.9175C11.9109 25.5792 12.3057 26.5312 13.0775 27.7505L13.5 27.483ZM12 23.8376L12.3368 23.4681L9.33679 20.734L9 21.1036L8.66321 21.4731L11.6632 24.2072L12 23.8376ZM22.5 22.1607L22.836 21.7904L22.2735 21.2801L21.9375 21.6504L21.6015 22.0207L22.164 22.531L22.5 22.1607ZM22.5 22.1607C22.7519 22.5926 22.7522 22.5925 22.7525 22.5923C22.7525 22.5923 22.7528 22.5921 22.753 22.592C22.7534 22.5918 22.7538 22.5915 22.7541 22.5913C22.7549 22.5909 22.7558 22.5904 22.7566 22.5899C22.7583 22.5888 22.7602 22.5877 22.7622 22.5865C22.7662 22.584 22.7708 22.5812 22.776 22.5779C22.7862 22.5713 22.7986 22.563 22.8128 22.553C22.841 22.533 22.8768 22.5054 22.9163 22.4699C22.9944 22.3997 23.0935 22.2923 23.1741 22.1436C23.3502 21.8183 23.3915 21.3791 23.1321 20.8749L22.6875 21.1036L22.2429 21.3323C22.3585 21.5571 22.306 21.6465 22.2947 21.6675C22.2815 21.6919 22.2634 21.7121 22.2477 21.7263C22.2404 21.7329 22.2352 21.7367 22.2341 21.7374C22.2336 21.7378 22.2343 21.7373 22.2365 21.7359C22.2376 21.7352 22.2391 21.7342 22.241 21.7331C22.242 21.7325 22.243 21.7318 22.2442 21.7311C22.2448 21.7308 22.2454 21.7304 22.2461 21.73C22.2464 21.7298 22.2467 21.7296 22.247 21.7294C22.2472 21.7293 22.2475 21.7292 22.2476 21.7291C22.2478 21.729 22.2481 21.7288 22.5 22.1607ZM22.6875 21.1036L23.1321 20.8749C22.6838 20.0033 21.8742 19.6922 21 19.6922V20.1922V20.6922C21.6258 20.6922 22.0169 20.8929 22.2429 21.3323L22.6875 21.1036ZM21 20.1922V19.6922H18.375V20.1922V20.6922H21V20.1922ZM18.375 20.1922V19.6922C18.3047 19.6922 18.078 19.6417 17.8727 19.492C17.6866 19.3564 17.5625 19.1745 17.5625 18.9163H17.0625H16.5625C16.5625 19.5695 16.9071 20.0256 17.2836 20.3C17.6407 20.5604 18.0703 20.6922 18.375 20.6922V20.1922ZM17.0625 18.9163H17.5625C17.5625 18.7288 17.6782 18.5331 17.8743 18.3482C17.9657 18.262 18.0591 18.1933 18.1302 18.1461C18.1652 18.1228 18.1937 18.1055 18.2121 18.0948C18.2212 18.0894 18.2278 18.0857 18.2314 18.0837C18.2331 18.0828 18.2341 18.0822 18.2343 18.0821C18.2344 18.0821 18.2343 18.0821 18.234 18.0823C18.2338 18.0824 18.2336 18.0825 18.2333 18.0826C18.2332 18.0827 18.2331 18.0828 18.2329 18.0829C18.2328 18.0829 18.2327 18.083 18.2326 18.083C18.2325 18.0831 18.2324 18.0832 18 17.6404C17.7676 17.1977 17.7675 17.1978 17.7673 17.1979C17.7673 17.1979 17.7671 17.198 17.767 17.198C17.7668 17.1981 17.7666 17.1983 17.7663 17.1984C17.7658 17.1987 17.7653 17.199 17.7647 17.1993C17.7634 17.1999 17.762 17.2007 17.7603 17.2016C17.7569 17.2034 17.7527 17.2057 17.7476 17.2085C17.7374 17.2142 17.7238 17.2218 17.7074 17.2315C17.6745 17.2507 17.6297 17.278 17.5769 17.3131C17.4722 17.3826 17.3312 17.4859 17.1882 17.6207C16.9156 17.8777 16.5625 18.32 16.5625 18.9163H17.0625ZM18 17.6404V18.1404H24.375V17.6404V17.1404H18V17.6404ZM24.375 17.6404L24.2139 18.1138L27.9639 19.3897L28.125 18.9163L28.2861 18.443L24.5361 17.1671L24.375 17.6404ZM28.125 18.9163L28.4451 19.3004L31.0701 17.1132L30.75 16.7291L30.4299 16.345L27.8049 18.5322L28.125 18.9163ZM18 17.6404L18.3485 17.2819L16.661 15.6415L16.3125 16L15.964 16.3585L17.6515 17.9989L18 17.6404ZM30.375 29.3057L30.711 28.9354L24.336 23.1514L24 23.5217L23.664 23.892L30.039 29.676L30.375 29.3057ZM24 23.5217L24.336 23.1514L22.836 21.7904L22.5 22.1607L22.164 22.531L23.664 23.892L24 23.5217ZM24 23.5217C23.7334 23.9446 23.7334 23.9447 23.7335 23.9447C23.7335 23.9447 23.7335 23.9448 23.7336 23.9448C23.7337 23.9449 23.7338 23.9449 23.734 23.945C23.7343 23.9452 23.7347 23.9455 23.7351 23.9458C23.7361 23.9464 23.7374 23.9472 23.7391 23.9483C23.7425 23.9504 23.7473 23.9534 23.7535 23.9572C23.7659 23.9649 23.7838 23.976 23.8067 23.99C23.8526 24.0181 23.9188 24.058 24.0013 24.1066C24.1663 24.2037 24.3979 24.3359 24.6655 24.477C25.1902 24.7537 25.8919 25.0854 26.5069 25.2348L26.625 24.749L26.7431 24.2631C26.2545 24.1444 25.6437 23.8624 25.1319 23.5925C24.8811 23.4603 24.6634 23.336 24.5086 23.2448C24.4313 23.1993 24.3699 23.1623 24.3283 23.1368C24.3075 23.1241 24.2916 23.1143 24.2812 23.1078C24.276 23.1046 24.2721 23.1021 24.2697 23.1006C24.2684 23.0998 24.2676 23.0993 24.2671 23.099C24.2668 23.0988 24.2667 23.0987 24.2666 23.0987C24.2665 23.0986 24.2665 23.0986 24.2665 23.0986C24.2665 23.0986 24.2666 23.0987 24.2666 23.0987C24.2666 23.0987 24.2666 23.0987 24 23.5217ZM26.625 24.749L26.5069 25.2348C26.9867 25.3514 27.406 25.2926 27.7025 25.2062C27.8508 25.1629 27.971 25.1121 28.0565 25.0705C28.0994 25.0496 28.134 25.0309 28.1597 25.0163C28.1725 25.009 28.1831 25.0026 28.1914 24.9976C28.1956 24.995 28.1992 24.9928 28.2022 24.9909C28.2037 24.99 28.205 24.9891 28.2062 24.9883C28.2068 24.9879 28.2074 24.9876 28.2079 24.9872C28.2082 24.9871 28.2085 24.9869 28.2087 24.9867C28.2088 24.9867 28.209 24.9865 28.2091 24.9865C28.2092 24.9864 28.2094 24.9863 27.9375 24.5667C27.6656 24.1471 27.6657 24.147 27.6659 24.1469C27.666 24.1468 27.6661 24.1467 27.6662 24.1467C27.6664 24.1465 27.6667 24.1464 27.6668 24.1463C27.6672 24.146 27.6676 24.1458 27.6679 24.1456C27.6686 24.1452 27.6691 24.1448 27.6696 24.1446C27.6704 24.144 27.6707 24.1438 27.6706 24.1439C27.6703 24.1441 27.6681 24.1454 27.6641 24.1477C27.656 24.1523 27.6409 24.1606 27.6193 24.1711C27.5759 24.1922 27.5085 24.2211 27.4225 24.2462C27.2502 24.2964 27.0133 24.3288 26.7431 24.2631L26.625 24.749ZM15.305 29.1521L15.6444 28.7849L13.8395 27.1159L13.5 27.483L13.1605 27.8501L14.9655 29.5192L15.305 29.1521ZM15.305 29.1521C14.9841 28.7686 14.9839 28.7688 14.9837 28.7689C14.9836 28.769 14.9834 28.7692 14.9833 28.7693C14.983 28.7695 14.9827 28.7698 14.9823 28.7701C14.9817 28.7707 14.9809 28.7713 14.9801 28.7719C14.9785 28.7733 14.9767 28.7749 14.9746 28.7767C14.9704 28.7803 14.9652 28.7849 14.9591 28.7904C14.947 28.8013 14.9312 28.8159 14.9126 28.8341C14.8755 28.8702 14.8265 28.9211 14.7728 28.9855C14.6673 29.1119 14.5334 29.302 14.4418 29.544C14.3487 29.7898 14.2974 30.0954 14.3714 30.4342C14.4456 30.7737 14.6363 31.1043 14.9573 31.4149L15.305 31.0555L15.6527 30.6962C15.4461 30.4964 15.3731 30.3339 15.3484 30.2207C15.3235 30.107 15.3382 30.0005 15.377 29.8981C15.4172 29.7918 15.4811 29.6974 15.5404 29.6264C15.5691 29.592 15.5943 29.566 15.6109 29.5499C15.619 29.5419 15.6249 29.5366 15.6277 29.5341C15.629 29.5328 15.6296 29.5323 15.6294 29.5325C15.6292 29.5326 15.6289 29.5329 15.6283 29.5334C15.628 29.5337 15.6277 29.534 15.6272 29.5343C15.627 29.5345 15.6268 29.5347 15.6266 29.5349C15.6265 29.535 15.6263 29.5351 15.6262 29.5352C15.626 29.5354 15.6258 29.5355 15.305 29.1521ZM17.25 30.9506L17.5895 30.5835L15.6444 28.7849L15.305 29.1521L14.9655 29.5192L16.9105 31.3177L17.25 30.9506ZM15.305 31.0555L14.9573 31.4149C15.4907 31.931 16.217 31.8432 16.6545 31.7275C16.8922 31.6647 17.101 31.5795 17.2487 31.5116C17.3232 31.4772 17.3841 31.4464 17.4273 31.4235C17.449 31.4121 17.4664 31.4026 17.479 31.3955C17.4853 31.392 17.4904 31.3891 17.4943 31.3869C17.4962 31.3858 17.4978 31.3848 17.4992 31.3841C17.4998 31.3837 17.5004 31.3834 17.5009 31.3831C17.5011 31.3829 17.5014 31.3828 17.5016 31.3827C17.5017 31.3826 17.5018 31.3825 17.5019 31.3825C17.502 31.3824 17.5021 31.3824 17.25 30.9506C16.9979 30.5188 16.998 30.5188 16.9981 30.5187C16.9981 30.5187 16.9982 30.5186 16.9983 30.5186C16.9984 30.5185 16.9985 30.5184 16.9986 30.5184C16.9988 30.5183 16.9989 30.5182 16.999 30.5182C16.9991 30.5181 16.9988 30.5182 16.9983 30.5185C16.9973 30.5191 16.9952 30.5203 16.992 30.5221C16.9855 30.5257 16.9747 30.5317 16.96 30.5394C16.9307 30.5549 16.8863 30.5775 16.8304 30.6032C16.7171 30.6554 16.5644 30.717 16.3989 30.7607C16.0299 30.8583 15.7837 30.823 15.6527 30.6962L15.305 31.0555ZM17.25 30.9506C16.9807 30.5293 16.9805 30.5294 16.9803 30.5296C16.9802 30.5296 16.98 30.5298 16.9798 30.5299C16.9795 30.5301 16.9792 30.5303 16.9788 30.5305C16.9781 30.531 16.9773 30.5315 16.9764 30.5321C16.9746 30.5332 16.9725 30.5346 16.9701 30.5362C16.9653 30.5394 16.9592 30.5435 16.9521 30.5484C16.9377 30.5583 16.9188 30.5717 16.8963 30.5885C16.8515 30.6221 16.7914 30.67 16.7244 30.7314C16.5933 30.8518 16.4215 31.0371 16.2923 31.2817C16.1607 31.5308 16.0688 31.8513 16.1224 32.2203C16.1759 32.589 16.3668 32.9514 16.7033 33.2989L17.0625 32.9511L17.4217 32.6033C17.1957 32.37 17.1288 32.1919 17.112 32.0766C17.0953 31.9616 17.1206 31.8546 17.1765 31.7488C17.2348 31.6384 17.3208 31.5414 17.4006 31.4682C17.4391 31.4328 17.4728 31.4061 17.4953 31.3893C17.5065 31.3809 17.5147 31.3751 17.519 31.3722C17.5212 31.3707 17.5223 31.3699 17.5224 31.3698C17.5225 31.3698 17.5222 31.37 17.5217 31.3703C17.5215 31.3705 17.5211 31.3707 17.5207 31.371C17.5205 31.3711 17.5203 31.3712 17.52 31.3714C17.5199 31.3715 17.5197 31.3716 17.5197 31.3716C17.5195 31.3718 17.5193 31.3719 17.25 30.9506ZM21.1875 34.5915L21.527 34.2244L19.5582 32.404L19.2188 32.7711L18.8793 33.1382L20.848 34.9587L21.1875 34.5915ZM19.2188 32.7711L19.5582 32.404L17.5895 30.5835L17.25 30.9506L16.9105 31.3177L18.8793 33.1382L19.2188 32.7711ZM17.0625 32.9511L16.7033 33.2989C16.9743 33.5788 17.3246 33.6741 17.632 33.6915C17.9375 33.7087 18.2455 33.6527 18.5029 33.5831C18.7644 33.5125 18.9998 33.4205 19.1678 33.3477C19.2525 33.3109 19.3218 33.2782 19.3709 33.2543C19.3954 33.2423 19.415 33.2324 19.429 33.2253C19.436 33.2217 19.4416 33.2188 19.4457 33.2166C19.4477 33.2156 19.4494 33.2147 19.4508 33.214C19.4514 33.2136 19.452 33.2133 19.4525 33.2131C19.4527 33.213 19.4529 33.2128 19.4531 33.2127C19.4532 33.2127 19.4533 33.2126 19.4534 33.2126C19.4535 33.2125 19.4536 33.2125 19.2188 32.7711C18.9839 32.3297 18.984 32.3296 18.9841 32.3296C18.9841 32.3295 18.9842 32.3295 18.9843 32.3295C18.9843 32.3294 18.9844 32.3294 18.9845 32.3294C18.9846 32.3293 18.9846 32.3293 18.9845 32.3293C18.9843 32.3294 18.9838 32.3297 18.983 32.3301C18.9812 32.331 18.9781 32.3327 18.9737 32.3349C18.9648 32.3395 18.9507 32.3466 18.932 32.3557C18.8945 32.374 18.8389 32.4003 18.7698 32.4303C18.63 32.4909 18.4423 32.5636 18.242 32.6178C18.0376 32.673 17.8451 32.7019 17.6884 32.6931C17.5335 32.6843 17.4597 32.6426 17.4217 32.6033L17.0625 32.9511ZM19.2188 32.7711C18.967 32.3391 18.9668 32.3392 18.9666 32.3393C18.9665 32.3394 18.9663 32.3395 18.9661 32.3396C18.9658 32.3398 18.9655 32.34 18.9651 32.3402C18.9644 32.3406 18.9636 32.3411 18.9627 32.3416C18.9608 32.3427 18.9586 32.344 18.9561 32.3456C18.9509 32.3487 18.9443 32.3527 18.9363 32.3577C18.9204 32.3677 18.899 32.3814 18.8734 32.3987C18.8225 32.4332 18.7535 32.4829 18.6767 32.5464C18.5278 32.6695 18.3271 32.8629 18.181 33.1181C18.031 33.3803 17.9275 33.7306 18.0287 34.1277C18.1279 34.5166 18.4023 34.8657 18.8304 35.1778L19.125 34.7738L19.4196 34.3698C19.1052 34.1406 19.0201 33.9687 18.9977 33.8806C18.9773 33.8006 18.99 33.7179 19.049 33.6148C19.112 33.5046 19.2132 33.4004 19.3139 33.3171C19.3619 33.2774 19.4046 33.2468 19.4342 33.2267C19.4489 33.2167 19.46 33.2097 19.4665 33.2056C19.4697 33.2036 19.4717 33.2023 19.4725 33.2019C19.4728 33.2017 19.4729 33.2017 19.4725 33.2019C19.4724 33.202 19.4721 33.2021 19.4718 33.2023C19.4716 33.2024 19.4714 33.2025 19.4712 33.2026C19.4711 33.2027 19.471 33.2028 19.4709 33.2028C19.4707 33.2029 19.4705 33.203 19.2188 32.7711ZM19.125 34.7738L18.8304 35.1778C19.4014 35.5941 20.1192 35.4916 20.5678 35.3704C20.8104 35.3049 21.0228 35.2208 21.1735 35.1539C21.2495 35.1202 21.3112 35.0902 21.3551 35.0681C21.377 35.057 21.3946 35.0479 21.4072 35.0411C21.4136 35.0377 21.4187 35.035 21.4226 35.0329C21.4245 35.0318 21.4261 35.0309 21.4274 35.0302C21.428 35.0299 21.4286 35.0296 21.4291 35.0293C21.4293 35.0292 21.4296 35.029 21.4298 35.0289C21.4299 35.0289 21.43 35.0288 21.43 35.0288C21.4302 35.0287 21.4303 35.0286 21.1875 34.5915C20.9447 34.1545 20.9448 34.1544 20.9449 34.1543C20.945 34.1543 20.9451 34.1543 20.9451 34.1542C20.9452 34.1542 20.9453 34.1541 20.9454 34.1541C20.9456 34.154 20.9457 34.1539 20.9457 34.1539C20.9457 34.1539 20.9454 34.154 20.9449 34.1544C20.9437 34.155 20.9414 34.1562 20.9379 34.1581C20.931 34.1618 20.9196 34.1677 20.9042 34.1755C20.8733 34.1911 20.8267 34.2138 20.7679 34.2399C20.649 34.2926 20.4865 34.3566 20.3072 34.405C19.9121 34.5117 19.5986 34.5003 19.4196 34.3698L19.125 34.7738Z" fill="#9750CE"/>
<path d="M31.2 38.1598C28.4348 39.7629 25.2243 40.6803 21.8 40.6803C11.417 40.6803 3 32.2453 3 21.8402C3 11.435 11.417 3 21.8 3C32.183 3 40.6 11.435 40.6 21.8402C40.6 28.8137 36.8193 34.9023 31.2 38.1598ZM31.2 38.1598L50 57M11 14.5C12.5 12 14.5 10.5 17 9.5" stroke="#8D006A" stroke-width="5" stroke-linecap="round"/>
</svg>
