<svg width="377" height="430" viewBox="0 0 377 430" fill="none" xmlns="http://www.w3.org/2000/svg">
<path d="M211.5 44V20.5C211.5 14.5 204.5 10 198 10H110.5C103 10 96.5 13 96.5 20.5V42.5H31.5C23.5 42.5 10 53 10 64V394.5C10 407 13.5 419 34.5 419H203.5M211.5 44H279C286 44 300 51.5 300 62V248M211.5 44V68C211.5 75.5 208 81.5 198 81.5H110.5C104.5 81.5 97 80.5 96.5 73.4171V44M59 367.5H145M59 328.5H171.5M59 290H202.5M124.5 216.5C124.5 216.5 131.5 235 155 235M155 235C172.418 235 189.156 225.417 189 208C188.838 190 170.379 188.028 153.5 182C139.5 177 124.5 174 124.5 154.5C124.5 139.547 143 129.5 155 129.5M155 235V254.5M155 129.5C178 129.5 187 150.5 187 150.5M155 129.5V114.5" stroke="#8D006A" stroke-width="20" stroke-linecap="round"/>
<ellipse cx="300" cy="352" rx="77" ry="78" fill="#A300EE"/>
<path d="M262 352.5L286.5 378.017L338.517 326" stroke="white" stroke-width="20" stroke-linecap="round"/>
</svg>
