<svg width="230" height="191" viewBox="0 0 230 191" fill="none" xmlns="http://www.w3.org/2000/svg">
<path d="M5 160H120.5M5 160V5M5 160L77.5 74.3478M5 5H211M5 5L77.5 74.3478M211 5V78.5M211 5L114.031 98.658C110.941 101.642 106.047 101.654 102.943 98.6849L77.5 74.3478M163.5 142.5L176 155.5L200 127M181.5 94.5C205.529 94.7793 223.345 114.978 224 139C224.674 163.737 206.244 185.713 181.5 186C156.492 186.29 137.318 164 138 139C138.663 114.707 157.2 94.2176 181.5 94.5Z" stroke="#6C00BE" stroke-width="10" stroke-linecap="round" stroke-linejoin="round"/>
</svg>
