<svg width="222" height="222" viewBox="0 0 222 222" fill="none" xmlns="http://www.w3.org/2000/svg">
<path d="M68.7695 72.5C70.8651 76.0512 74.621 78.5 79 78.5C83.2194 78.5 86.8648 76.2262 89 72.8835M68.7695 72.5C67.5586 70.4481 66.9021 68.0282 67 65.5C67.2511 59.014 72.0148 53.7705 78.5 53.5C85.261 53.218 90.7268 58.7386 91 65.5C91.1086 68.1875 90.3611 70.7527 89 72.8835M68.7695 72.5L27.5 113.769M113.233 98C115.314 95.8225 118.234 94.5 121.5 94.5C124.766 94.5 127.693 95.8225 129.777 98M113.233 98C111.179 100.15 109.943 103.133 110 106.5C110.111 113.002 115.285 117.5 121.5 117.5C127.715 117.5 132.857 113.265 133 106.5C133.071 103.133 131.835 100.15 129.777 98M113.233 98L89 72.8835M129.777 98L172.016 53.5M172.016 53.5C170.19 51.5958 169.051 49.013 169 46C168.885 39.2228 174.009 34 180.5 34C186.991 34 192.143 39.2234 192 46C191.857 52.7654 186.715 57 180.5 57C177.165 57 174.13 55.7048 172.016 53.5ZM216.5 141V173.5C216.5 177.918 212.918 181.5 208.5 181.5H139M216.5 141V13C216.5 8.58172 212.918 5 208.5 5H13C8.58172 5 5 8.58172 5 13V141M216.5 141H5M5 141V173.5C5 177.918 8.58172 181.5 13 181.5H83M83 181.5L74 217M83 181.5H139M74 217H146M74 217H55.5M139 181.5L146 217M146 217H167" stroke="#6C00BE" stroke-width="10" stroke-linecap="round" stroke-linejoin="round"/>
</svg>
