<svg width="377" height="414" viewBox="0 0 377 414" fill="none" xmlns="http://www.w3.org/2000/svg">
<path d="M244 10H96.5H31.5C23.5 10 10 20.5 10 31.5V377C10 389.5 13.5 401.5 34.5 401.5H203.5M244 10L300 62M244 10V49.5C244 57 246.5 62 259 62H300M300 62V219.5M59 334H171.5M59 295.5H202.5M124.5 227C124.5 227 131.5 245.5 155 245.5M155 245.5C172.418 245.5 189.156 235.917 189 218.5C188.838 200.5 170.379 198.528 153.5 192.5C139.5 187.5 124.5 184.5 124.5 165C124.5 150.047 143 140 155 140M155 245.5V265M155 140C178 140 187 161 187 161M155 140V125" stroke="#8D006A" stroke-width="20" stroke-linecap="round"/>
<ellipse cx="300" cy="336" rx="77" ry="78" fill="#A300EE"/>
<path d="M262 336.5L286.5 362.017L338.517 310" stroke="white" stroke-width="20" stroke-linecap="round"/>
<rect x="40" y="47" width="153" height="52" rx="16" fill="#EBA5FD"/>
</svg>
