<svg width="230" height="217" viewBox="0 0 230 217" fill="none" xmlns="http://www.w3.org/2000/svg">
<path d="M156.5 48.5V13C156.5 8.58172 152.918 5 148.5 5H13C8.58172 5 5 8.58172 5 13V117.5C5 121.918 8.58172 125.5 13 125.5H19.5C23.9183 125.5 27.5 129.082 27.5 133.5V156.672C27.5 158.453 29.6543 159.346 30.9142 158.086L61.1569 127.843C62.6571 126.343 64.692 125.5 66.8137 125.5H78M156.5 48.5V117.5C156.5 121.918 152.918 125.5 148.5 125.5H78M156.5 48.5H216.5C220.918 48.5 224.5 52.0817 224.5 56.5V174C224.5 178.418 220.918 182 216.5 182H208.5C204.082 182 200.5 185.582 200.5 190V212L172.843 184.343C171.343 182.843 169.308 182 167.186 182H86C81.5817 182 78 178.418 78 174V125.5M33.5 45H127M33.5 78.5H107" stroke="#6C00BE" stroke-width="10" stroke-linecap="round" stroke-linejoin="round"/>
</svg>
