<svg width="38" height="40" viewBox="0 0 38 40" fill="none" xmlns="http://www.w3.org/2000/svg">
<path d="M8 5C8 5 5.5621 5 4 5C2.50009 5 1 6 1 8V14M8 5V1M8 5V7M8 5H24M24 5C24 5 26.5 5 28 5C29.4552 5 31 6.07752 31 8C31 10.7337 31 14 31 14M24 5V1M24 5V7M1 14V33C1 34 2.5 35 3 35H23.6816M1 14H31M31 14C31 14 31 20.7042 31 25M31 25C34.5611 25.5312 37.0197 28.3996 37 32C36.9789 35.8659 33.866 39 30 39C27.2076 39 24.8067 37.3649 23.6816 35M31 25C26.8881 24.4294 22.9803 27.8487 23 32C23.0051 33.0736 23.249 34.0907 23.6816 35M6 19C6 18.5 6.5 18 7 18H9C9.5 18 10 18.5 10 19V21C10 21.5 9.5 22 9 22H7C6.5 22 6 21.5 6 21V19ZM14 19C14 18.5 14.5 18 15 18H17C17.5 18 18 18.5 18 19V21C18 21.5 17.5 22 17 22H15C14.5 22 14 21.5 14 21V19ZM22 19C22 18.5 22.5 18 23 18H25C25.5 18 26 18.5 26 19V21C26 21.5 25.5 22 25 22H23C22.5 22 22 21.5 22 21V19ZM6 27C6 26.5 6.5 26 7 26H9C9.5 26 10 26.5 10 27V29C10 29.5 9.5 30 9 30H7C6.5 30 6 29.5 6 29V27ZM14 27C14 26.5 14.5 26 15 26H17C17.5 26 18 26.5 18 27V29C18 29.5 17.5 30 17 30H15C14.5 30 14 29.5 14 29V27Z" stroke="#8D006A" stroke-width="2" stroke-linecap="round"/>
<path d="M30.3867 27.2627C30.4181 27.277 30.4479 27.3043 30.4688 27.3438C30.4895 27.3832 30.4989 27.4308 30.4932 27.4785L30.1143 30.3096L30.0908 30.4805L30.2441 30.5625L31.6553 31.3184V31.3193C31.6753 31.3301 31.6946 31.3458 31.7109 31.3672C31.726 31.387 31.7375 31.4109 31.7451 31.4375C31.7505 31.4664 31.7517 31.4965 31.7461 31.5254C31.7402 31.5557 31.7285 31.5834 31.7129 31.6064H31.7119L31.7061 31.6152L29.208 35.666V35.667C29.191 35.6949 29.1687 35.7159 29.1455 35.7295C29.1224 35.743 29.0979 35.7499 29.0742 35.75H29.0703L29.0234 35.7402L29.0176 35.7373C28.9854 35.7237 28.9544 35.6971 28.9326 35.6572C28.9109 35.6174 28.9014 35.5692 28.9072 35.5205L29.2861 32.7207L29.3115 32.5332L29.1377 32.458L27.3604 31.6885H27.3613C27.3392 31.6788 27.3172 31.6631 27.2988 31.6406C27.2803 31.6179 27.2658 31.589 27.2578 31.5566L27.2568 31.5547C27.2488 31.5227 27.248 31.4888 27.2539 31.4561C27.2599 31.4231 27.2718 31.3926 27.2891 31.3682L30.2031 27.3193C30.2279 27.2851 30.2596 27.2638 30.291 27.2549C30.3223 27.2461 30.3557 27.2486 30.3867 27.2627Z" fill="#F4D31B" stroke="#191919" stroke-width="0.5"/>
</svg>
