<svg width="390" height="96" viewBox="0 0 390 96" fill="none" xmlns="http://www.w3.org/2000/svg">
<path d="M52.1333 27.3095C52.2075 38.4168 43.5171 47.8898 32.2907 47.8898C21.0644 47.8898 12.3739 38.4168 12.4482 27.3095C12.522 16.2785 21.1415 7 32.2907 7C43.44 7 52.0595 16.2785 52.1333 27.3095Z" fill="#362173"/>
<path d="M24.4905 35.1614C24.4905 35.1614 24.8466 40.848 31.0591 40.848C34.0696 40.848 34.4802 38.1401 34.4802 38.1401V15.9351C34.4802 15.2592 32.4186 14.1748 30.6485 14.1748C25.9958 14.1748 24.2417 17.1937 24.08 19.4565C24.08 19.4565 20.6053 20.7914 19.8378 22.9768C19.0703 25.1621 21.2062 27.5803 21.2062 27.5803C21.2062 27.5803 19.6021 29.8143 19.8377 31.5068C20.1704 33.8957 22.5746 35.2979 24.4905 35.1614ZM24.4905 35.1614C25.0413 34.0966 25.6035 33.5405 26.68 32.9961C27.5575 32.5523 29.5537 32.4545 29.5537 32.4545M26.5432 26.496C26.5432 26.496 28.1928 25.4943 28.7327 24.4651C29.2794 23.423 29.1432 21.4863 29.1432 21.4863M38.8592 15.5289C38.8592 15.5289 42.7224 17.2528 43.2382 19.5919C43.598 21.2235 43.2382 22.706 42.554 23.9246M42.554 23.9246C43.9224 25.5493 45.0013 26.911 45.1541 28.1208C45.7014 32.4545 42.2803 32.9961 42.2803 32.9961M42.554 23.9246C41.592 24.0303 39.9539 24.1953 39.9539 24.1953M42.2803 32.9961C42.2803 32.9961 42.0511 35.5816 41.1856 36.9215C40.4731 38.0246 38.7224 39.2233 38.7224 39.2233M42.2803 32.9961L40.0908 30.8298" stroke="#63BCEC" stroke-width="3" stroke-linecap="round"/>
<path d="M43.101 49.5146C40.9114 52.6287 33.7958 52.6288 31.7429 52.6288C30.1007 52.6288 24.9006 52.0872 21.3427 49.65C11.564 49.3772 2.77532 54.0371 0.542232 63.4605C-0.0804057 66.088 -0.1601 67.7005 0.268542 70.3657C1.22667 76.3232 5.60549 77.0002 5.60549 77.0002L58.5645 76.7294C62.1224 76.0524 63.2983 73.9063 63.7646 70.9073C64.0382 69.1472 64.1163 67.4958 63.7646 65.3561C63.0662 61.1071 62.1243 58.0825 58.5645 55.6075C53.5012 52.0872 50.4906 50.5978 43.101 49.5146Z" fill="url(#paint0_linear_778_159)"/>
<path d="M127.12 25.328V70H118.16V40.944L106.192 70H99.408L87.376 40.944V70H78.416V25.328H88.592L102.8 58.544L117.008 25.328H127.12ZM133.674 52.144C133.674 48.56 134.378 45.3813 135.786 42.608C137.237 39.8347 139.179 37.7013 141.611 36.208C144.085 34.7147 146.837 33.968 149.867 33.968C152.512 33.968 154.816 34.5013 156.779 35.568C158.784 36.6347 160.384 37.9787 161.579 39.6V34.544H170.603V70H161.579V64.816C160.427 66.48 158.827 67.8667 156.779 68.976C154.773 70.0427 152.448 70.576 149.803 70.576C146.816 70.576 144.085 69.808 141.611 68.272C139.179 66.736 137.237 64.5813 135.786 61.808C134.378 58.992 133.674 55.7707 133.674 52.144ZM161.579 52.272C161.579 50.096 161.152 48.24 160.299 46.704C159.445 45.1253 158.293 43.9307 156.843 43.12C155.392 42.2667 153.835 41.84 152.171 41.84C150.507 41.84 148.971 42.2453 147.562 43.056C146.155 43.8667 145.003 45.0613 144.107 46.64C143.253 48.176 142.827 50.0107 142.827 52.144C142.827 54.2773 143.253 56.1547 144.107 57.776C145.003 59.3547 146.155 60.5707 147.562 61.424C149.013 62.2773 150.549 62.704 152.171 62.704C153.835 62.704 155.392 62.2987 156.843 61.488C158.293 60.6347 159.445 59.44 160.299 57.904C161.152 56.3253 161.579 54.448 161.579 52.272ZM199.002 34.032C203.226 34.032 206.639 35.376 209.242 38.064C211.844 40.7093 213.146 44.4213 213.146 49.2V70H204.186V50.416C204.186 47.6 203.482 45.4453 202.074 43.952C200.666 42.416 198.746 41.648 196.314 41.648C193.839 41.648 191.876 42.416 190.426 43.952C189.018 45.4453 188.314 47.6 188.314 50.416V70H179.354V34.544H188.314V38.96C189.508 37.424 191.023 36.2293 192.858 35.376C194.735 34.48 196.783 34.032 199.002 34.032ZM249.058 61.488H231.266L228.322 70H218.914L234.978 25.264H245.41L261.474 70H252.002L249.058 61.488ZM246.626 54.32L240.162 35.632L233.698 54.32H246.626ZM276.439 25.328V70H267.479V25.328H276.439ZM299.179 33.968C301.824 33.968 304.15 34.5013 306.155 35.568C308.16 36.592 309.739 37.936 310.891 39.6V34.544H319.915V70.256C319.915 73.5413 319.254 76.464 317.931 79.024C316.608 81.6267 314.624 83.6747 311.979 85.168C309.334 86.704 306.134 87.472 302.379 87.472C297.344 87.472 293.206 86.2987 289.963 83.952C286.763 81.6053 284.95 78.4053 284.523 74.352H293.419C293.888 75.9733 294.891 77.2533 296.427 78.192C298.006 79.1733 299.904 79.664 302.123 79.664C304.726 79.664 306.838 78.8747 308.459 77.296C310.08 75.76 310.891 73.4133 310.891 70.256V64.752C309.739 66.416 308.139 67.8027 306.091 68.912C304.086 70.0213 301.782 70.576 299.179 70.576C296.192 70.576 293.462 69.808 290.987 68.272C288.512 66.736 286.55 64.5813 285.099 61.808C283.691 58.992 282.987 55.7707 282.987 52.144C282.987 48.56 283.691 45.3813 285.099 42.608C286.55 39.8347 288.491 37.7013 290.923 36.208C293.398 34.7147 296.15 33.968 299.179 33.968ZM310.891 52.272C310.891 50.096 310.464 48.24 309.611 46.704C308.758 45.1253 307.606 43.9307 306.155 43.12C304.704 42.2667 303.147 41.84 301.483 41.84C299.819 41.84 298.283 42.2453 296.875 43.056C295.467 43.8667 294.315 45.0613 293.419 46.64C292.566 48.176 292.139 50.0107 292.139 52.144C292.139 54.2773 292.566 56.1547 293.419 57.776C294.315 59.3547 295.467 60.5707 296.875 61.424C298.326 62.2773 299.862 62.704 301.483 62.704C303.147 62.704 304.704 62.2987 306.155 61.488C307.606 60.6347 308.758 59.44 309.611 57.904C310.464 56.3253 310.891 54.448 310.891 52.272ZM361.626 51.504C361.626 52.784 361.541 53.936 361.37 54.96H335.45C335.663 57.52 336.559 59.5253 338.138 60.976C339.717 62.4267 341.658 63.152 343.962 63.152C347.29 63.152 349.658 61.7227 351.066 58.864H360.73C359.706 62.2773 357.743 65.0933 354.842 67.312C351.941 69.488 348.378 70.576 344.154 70.576C340.741 70.576 337.669 69.8293 334.938 68.336C332.25 66.8 330.138 64.6453 328.602 61.872C327.109 59.0987 326.362 55.8987 326.362 52.272C326.362 48.6027 327.109 45.3813 328.602 42.608C330.095 39.8347 332.186 37.7013 334.874 36.208C337.562 34.7147 340.655 33.968 344.154 33.968C347.525 33.968 350.533 34.6933 353.178 36.144C355.866 37.5947 357.935 39.664 359.386 42.352C360.879 44.9973 361.626 48.048 361.626 51.504ZM352.346 48.944C352.303 46.64 351.471 44.8053 349.85 43.44C348.229 42.032 346.245 41.328 343.898 41.328C341.679 41.328 339.802 42.0107 338.266 43.376C336.773 44.6987 335.855 46.5547 335.514 48.944H352.346ZM377.126 40.048C378.278 38.1707 379.771 36.6987 381.606 35.632C383.483 34.5653 385.617 34.032 388.006 34.032V43.44H385.638C382.822 43.44 380.689 44.1013 379.238 45.424C377.83 46.7467 377.126 49.0507 377.126 52.336V70H368.166V34.544H377.126V40.048Z" fill="#311F6F"/>
<defs>
<linearGradient id="paint0_linear_778_159" x1="32" y1="49.5146" x2="32" y2="77.0002" gradientUnits="userSpaceOnUse">
<stop stop-color="#342170"/>
<stop offset="1" stop-color="#833FD6"/>
</linearGradient>
</defs>
</svg>
